STARTFONT 2.1
FONT big5.7200.16
SIZE 16 72 72
FONTBOUNDINGBOX 16 16 0 -2
STARTPROPERTIES 4
FONT_DESCENT 2
FONT_ASCENT 14
DEFAULT_CHAR 1
COPYRIGHT "Copyright (c) 1992 AT&T - All rights reserved."
ENDPROPERTIES
CHARS 339
STARTCHAR ch-1
ENCODING 1
SWIDTH 1000 0
DWIDTH 16 0
BBX 16 16 0 -2
BITMAP
17e8
1488
17cf
5c48
57c8
5492
17e1
1000
13fe
1252
1252
1252
2a52
47ff
0000
0000
ENDCHAR
STARTCHAR ch-2
ENCODING 2
SWIDTH 1000 0
DWIDTH 16 0
BBX 16 16 0 -2
BITMAP
0ff0
341e
25d2
3c1e
25d2
3d5e
25d2
7fff
4081
4889
4491
0140
0220
0c18
0000
0000
ENDCHAR
STARTCHAR ch-3
ENCODING 3
SWIDTH 1000 0
DWIDTH 16 0
BBX 16 16 0 -2
BITMAP
1104
1555
138e
5904
528a
5451
1000
17ff
1421
15fd
1020
10a8
2924
4222
0000
0000
ENDCHAR
STARTCHAR ch-5
ENCODING 5
SWIDTH 1000 0
DWIDTH 16 0
BBX 16 16 0 -2
BITMAP
13fe
12aa
1272
5bfe
5020
11fc
1020
17ff
128a
1489
1020
13fe
2820
47ff
0000
0000
ENDCHAR
STARTCHAR ch-6
ENCODING 6
SWIDTH 1000 0
DWIDTH 16 0
BBX 16 16 0 -2
BITMAP
09fc
09fc
0b04
2dfc
2888
2bfe
4888
0fff
0888
0924
16ab
1472
20a8
4124
0000
0000
ENDCHAR
STARTCHAR ch-7
ENCODING 7
SWIDTH 1000 0
DWIDTH 16 0
BBX 16 16 0 -2
BITMAP
0410
7fff
0410
0800
3e10
087c
7f14
2294
4954
3e25
0845
7f07
4221
4221
0000
0000
ENDCHAR
STARTCHAR ch-10
ENCODING 10
SWIDTH 1000 0
DWIDTH 16 0
BBX 16 16 0 -2
BITMAP
1020
1010
11ff
1128
55ff
5929
51ff
5144
1177
1144
117f
1100
2a55
4455
0000
0000
ENDCHAR
STARTCHAR ch-12
ENCODING 12
SWIDTH 1000 0
DWIDTH 16 0
BBX 16 16 0 -2
BITMAP
1020
13fe
1248
13fe
5648
5a78
53ff
52fe
1292
12fe
1492
10fe
2844
4482
0000
0000
ENDCHAR
STARTCHAR ch-13
ENCODING 13
SWIDTH 1000 0
DWIDTH 16 0
BBX 16 16 0 -2
BITMAP
1242
12fa
158d
57ef
5a8a
55fd
1707
1020
17ff
1020
2924
2922
4421
0040
0000
0000
ENDCHAR
STARTCHAR ch-16
ENCODING 16
SWIDTH 1000 0
DWIDTH 16 0
BBX 16 16 0 -2
BITMAP
1020
103c
11ff
5121
55fe
593c
517c
5154
117c
1154
117c
2afe
44aa
45ff
0000
0000
ENDCHAR
STARTCHAR ch-19
ENCODING 19
SWIDTH 1000 0
DWIDTH 16 0
BBX 16 16 0 -2
BITMAP
078f
1489
178f
5489
578f
7c41
54fd
5509
1411
149d
1505
15dd
2d05
45fd
0000
0000
ENDCHAR
STARTCHAR ch-20
ENCODING 20
SWIDTH 1000 0
DWIDTH 16 0
BBX 16 16 0 -2
BITMAP
1088
13fe
13fe
1020
53fe
5bca
5088
53fe
12a8
13e8
110a
11cc
284d
43d3
0000
0000
ENDCHAR
STARTCHAR ch-25
ENCODING 25
SWIDTH 1000 0
DWIDTH 16 0
BBX 16 16 0 -2
BITMAP
1010
11ff
11ef
1129
55ef
5844
51ff
5044
51ff
1044
11ff
118a
2884
44cb
0000
0000
ENDCHAR
STARTCHAR ch-26
ENCODING 26
SWIDTH 1000 0
DWIDTH 16 0
BBX 16 16 0 -2
BITMAP
1038
1044
1082
557d
5800
51ff
516d
11ff
1000
11ff
1129
11ff
2929
4507
0000
0000
ENDCHAR
STARTCHAR ch-27
ENCODING 27
SWIDTH 1000 0
DWIDTH 16 0
BBX 16 16 0 -2
BITMAP
17df
1451
17df
5c51
57df
5421
55fd
1421
15fd
1575
15fd
2ca9
4525
0402
0000
0000
ENDCHAR
STARTCHAR ch-29
ENCODING 29
SWIDTH 1000 0
DWIDTH 16 0
BBX 16 16 0 -2
BITMAP
13fe
1124
13fe
5652
5bfe
13c4
1244
13ff
1244
13e4
2a94
2684
4354
0208
0000
0000
ENDCHAR
STARTCHAR ch-30
ENCODING 30
SWIDTH 1000 0
DWIDTH 16 0
BBX 16 16 0 -2
BITMAP
1020
11fc
5124
5dfc
5022
53fe
1000
1104
17df
1555
17df
1104
2945
47df
0000
0000
ENDCHAR
STARTCHAR ch-31
ENCODING 31
SWIDTH 1000 0
DWIDTH 16 0
BBX 16 16 0 -2
BITMAP
1044
11ff
1044
11ef
5529
59ef
5088
51ff
1288
10ff
1088
10ff
2888
44ff
0000
0000
ENDCHAR
STARTCHAR ch-34
ENCODING 34
SWIDTH 1000 0
DWIDTH 16 0
BBX 16 16 0 -2
BITMAP
0040
3fff
2208
2fbe
271c
2aaa
2110
2f1e
2110
4f1e
0110
1f1f
0110
1224
0000
0000
ENDCHAR
STARTCHAR ch-35
ENCODING 35
SWIDTH 1000 0
DWIDTH 16 0
BBX 16 16 0 -2
BITMAP
1092
11ff
1101
557d
5844
507c
50fe
50ba
10fe
1010
10fe
1010
29ff
4529
0000
0000
ENDCHAR
STARTCHAR ch-38
ENCODING 38
SWIDTH 1000 0
DWIDTH 16 0
BBX 16 16 0 -2
BITMAP
17c8
150e
17d2
145f
57d3
5d15
57df
53fe
5202
13fa
13fa
13ff
2909
460f
0000
0000
ENDCHAR
STARTCHAR ch-39
ENCODING 39
SWIDTH 1000 0
DWIDTH 16 0
BBX 16 16 0 -2
BITMAP
11ff
1010
11ff
1195
5553
59bb
51ab
51bb
1000
10fe
1054
10ba
2810
45ff
0000
0000
ENDCHAR
STARTCHAR ch-40
ENCODING 40
SWIDTH 1000 0
DWIDTH 16 0
BBX 16 16 0 -2
BITMAP
0bec
3bec
1224
1ffc
1364
7fff
4411
5f7d
15d4
7fff
02a0
05d0
788f
0f78
0000
0000
ENDCHAR
STARTCHAR ch-41
ENCODING 41
SWIDTH 1000 0
DWIDTH 16 0
BBX 16 16 0 -2
BITMAP
0104
17df
138e
5555
57ff
7d53
56b4
5559
16b2
17f4
1229
2bc2
4624
03e8
0000
0000
ENDCHAR
STARTCHAR ch-42
ENCODING 42
SWIDTH 1000 0
DWIDTH 16 0
BBX 16 16 0 -2
BITMAP
0008
003c
0fc0
0890
0890
0890
0890
0890
0888
1088
1084
2087
4082
0080
0000
0000
ENDCHAR
STARTCHAR ch-44
ENCODING 44
SWIDTH 1000 0
DWIDTH 16 0
BBX 16 16 0 -2
BITMAP
0380
3c02
2aff
2a92
2a92
2afe
2a80
2a81
2a81
297f
2900
2880
487f
0800
0000
0000
ENDCHAR
STARTCHAR ch-45
ENCODING 45
SWIDTH 1000 0
DWIDTH 16 0
BBX 16 16 0 -2
BITMAP
0002
3ffc
1104
0888
0450
1ffc
0084
7fff
0084
1ffc
0084
0080
0280
0100
0000
0000
ENDCHAR
STARTCHAR ch-48
ENCODING 48
SWIDTH 1000 0
DWIDTH 16 0
BBX 16 16 0 -2
BITMAP
003c
1fc0
0488
0490
3ffe
0100
7fff
0200
07f8
0910
10a0
2040
01b0
1e0f
0000
0000
ENDCHAR
STARTCHAR ch-53
ENCODING 53
SWIDTH 1000 0
DWIDTH 16 0
BBX 16 16 0 -2
BITMAP
3ffe
0888
0490
7fff
4221
7fff
7f04
41ff
7f04
4144
7f24
4204
7f14
4108
0000
0000
ENDCHAR
STARTCHAR ch-54
ENCODING 54
SWIDTH 1000 0
DWIDTH 16 0
BBX 16 16 0 -2
BITMAP
0410
0808
1006
2012
0410
0220
0220
0140
0080
0140
0220
0418
1807
6002
0000
0000
ENDCHAR
STARTCHAR ch-56
ENCODING 56
SWIDTH 1000 0
DWIDTH 16 0
BBX 16 16 0 -2
BITMAP
0220
0410
0a28
3146
0080
0140
7e3f
0ff8
0888
0888
0ff8
0802
0802
07fe
0000
0000
ENDCHAR
STARTCHAR ch-57
ENCODING 57
SWIDTH 1000 0
DWIDTH 16 0
BBX 16 16 0 -2
BITMAP
0410
1a2c
01c0
0360
0d18
33e7
4622
09c0
0340
0cf8
0110
02a0
00c0
1f00
0000
0000
ENDCHAR
STARTCHAR ch-58
ENCODING 58
SWIDTH 1000 0
DWIDTH 16 0
BBX 16 16 0 -2
BITMAP
0410
0a28
3226
01c0
0220
1c1c
7f80
117e
1f24
1122
1f22
1132
7f2a
0124
0000
0000
ENDCHAR
STARTCHAR ch-59
ENCODING 59
SWIDTH 1000 0
DWIDTH 16 0
BBX 16 16 0 -2
BITMAP
0818
0620
0140
0080
0160
0618
3814
0420
0220
0140
0140
0630
180f
6002
0000
0000
ENDCHAR
STARTCHAR ch-61
ENCODING 61
SWIDTH 1000 0
DWIDTH 16 0
BBX 16 16 0 -2
BITMAP
0080
7fff
0080
1494
0888
1494
0080
1494
0888
1554
0220
0418
1807
6002
0000
0000
ENDCHAR
STARTCHAR ch-62
ENCODING 62
SWIDTH 1000 0
DWIDTH 16 0
BBX 16 16 0 -2
BITMAP
7fff
1084
2082
7fff
31c6
2aaa
2492
2aaa
31c6
2aaa
2492
2aaa
31c2
2086
0000
0000
ENDCHAR
STARTCHAR ch-63
ENCODING 63
SWIDTH 1000 0
DWIDTH 16 0
BBX 16 16 0 -2
BITMAP
0804
0804
0804
0804
0ffc
0004
0004
3ffc
0404
0404
0404
0804
1004
2004
0000
0000
ENDCHAR
STARTCHAR ch-65
ENCODING 65
SWIDTH 1000 0
DWIDTH 16 0
BBX 16 16 0 -2
BITMAP
22ff
2202
2202
22f2
3e92
0292
0292
7ef2
2292
2202
2202
2202
420a
0204
0000
0000
ENDCHAR
STARTCHAR ch-66
ENCODING 66
SWIDTH 1000 0
DWIDTH 16 0
BBX 16 16 0 -2
BITMAP
0482
4444
4428
45ff
4410
7c10
05ff
0410
7c10
27ff
2410
2410
2410
4410
0000
0000
ENDCHAR
STARTCHAR ch-68
ENCODING 68
SWIDTH 1000 0
DWIDTH 16 0
BBX 16 16 0 -2
BITMAP
0438
2444
2492
2511
26fe
7c82
04fe
7c82
24fe
2480
25fe
2682
2482
44fe
0000
0000
ENDCHAR
STARTCHAR ch-70
ENCODING 70
SWIDTH 1000 0
DWIDTH 16 0
BBX 16 16 0 -2
BITMAP
0410
25ff
2492
2492
2555
3dff
0400
7dff
2501
257d
2545
257d
4501
05ff
0000
0000
ENDCHAR
STARTCHAR ch-71
ENCODING 71
SWIDTH 1000 0
DWIDTH 16 0
BBX 16 16 0 -2
BITMAP
0040
1040
1040
1040
1fc0
1000
1000
1fe0
1020
1020
1020
1020
2020
4020
0000
0000
ENDCHAR
STARTCHAR ch-72
ENCODING 72
SWIDTH 1000 0
DWIDTH 16 0
BBX 16 16 0 -2
BITMAP
0404
240e
24f0
2480
3efe
2082
20c2
3ca4
24a4
24a8
2510
2628
4447
0582
0000
0000
ENDCHAR
STARTCHAR ch-73
ENCODING 73
SWIDTH 1000 0
DWIDTH 16 0
BBX 16 16 0 -2
BITMAP
2210
2292
2292
2254
3e10
20fe
2010
3e10
23ff
2210
2210
2210
2210
4010
0000
0000
ENDCHAR
STARTCHAR ch-74
ENCODING 74
SWIDTH 1000 0
DWIDTH 16 0
BBX 16 16 0 -2
BITMAP
2202
22ff
2222
2222
2222
3e4a
2084
2000
3efe
2282
2282
2282
22fe
4282
0000
0000
ENDCHAR
STARTCHAR ch-75
ENCODING 75
SWIDTH 1000 0
DWIDTH 16 0
BBX 16 16 0 -2
BITMAP
2422
24fe
2424
2428
2411
3ee9
2007
2000
3e22
24fe
2428
2411
2429
44c7
0000
0000
ENDCHAR
STARTCHAR ch-76
ENCODING 76
SWIDTH 1000 0
DWIDTH 16 0
BBX 16 16 0 -2
BITMAP
0420
2442
24ff
2492
3efe
2092
20a2
3cfe
2450
2492
27ff
2410
4410
0410
0000
0000
ENDCHAR
STARTCHAR ch-79
ENCODING 79
SWIDTH 1000 0
DWIDTH 16 0
BBX 16 16 0 -2
BITMAP
2438
2444
2482
2501
247c
3c00
20e2
3caa
24ea
24aa
24ea
24aa
24a2
4566
0000
0000
ENDCHAR
STARTCHAR ch-82
ENCODING 82
SWIDTH 1000 0
DWIDTH 16 0
BBX 16 16 0 -2
BITMAP
24a4
24a4
27ff
24a4
3ebc
2080
3cfe
2410
25ff
2438
2454
2493
4512
0410
0000
0000
ENDCHAR
STARTCHAR ch-83
ENCODING 83
SWIDTH 1000 0
DWIDTH 16 0
BBX 16 16 0 -2
BITMAP
4810
49ff
4844
4844
7dff
4101
4111
7cfe
4840
487e
4842
4882
4914
4808
0000
0000
ENDCHAR
STARTCHAR ch-86
ENCODING 86
SWIDTH 1000 0
DWIDTH 16 0
BBX 16 16 0 -2
BITMAP
0820
2bff
2a02
2bfe
3e14
23ff
2210
3afe
2a92
2afe
2a92
2afe
4c92
0896
0000
0000
ENDCHAR
STARTCHAR ch-88
ENCODING 88
SWIDTH 1000 0
DWIDTH 16 0
BBX 16 16 0 -2
BITMAP
4810
49ff
4810
48fe
7dff
4129
41ff
7cfe
48fa
48be
4882
48fe
4482
4101
0000
0000
ENDCHAR
STARTCHAR ch-89
ENCODING 89
SWIDTH 1000 0
DWIDTH 16 0
BBX 16 16 0 -2
BITMAP
0004
3ffe
1020
1020
1020
1022
3fff
0120
0220
0420
1820
6020
00a0
0040
0000
0000
ENDCHAR
STARTCHAR ch-90
ENCODING 90
SWIDTH 1000 0
DWIDTH 16 0
BBX 16 16 0 -2
BITMAP
1084
0888
7fff
4001
4ff9
0808
0ff8
0000
1ffc
0810
3ffe
0410
0850
1020
0000
0000
ENDCHAR
STARTCHAR ch-91
ENCODING 91
SWIDTH 1000 0
DWIDTH 16 0
BBX 16 16 0 -2
BITMAP
0080
0880
0888
0ffc
1080
2080
0082
7fff
0080
0080
0080
0080
0080
0080
0000
0000
ENDCHAR
STARTCHAR ch-93
ENCODING 93
SWIDTH 1000 0
DWIDTH 16 0
BBX 16 16 0 -2
BITMAP
0440
1440
1442
1f46
2448
2450
4460
0740
0c40
3440
0441
0441
043f
0400
0000
0000
ENDCHAR
STARTCHAR ch-94
ENCODING 94
SWIDTH 1000 0
DWIDTH 16 0
BBX 16 16 0 -2
BITMAP
0820
2820
2820
3dff
4821
0821
0c21
1821
6821
0841
0881
0902
0a14
0808
0000
0000
ENDCHAR
STARTCHAR ch-95
ENCODING 95
SWIDTH 1000 0
DWIDTH 16 0
BBX 16 16 0 -2
BITMAP
0100
0210
0408
1ffc
0084
0888
0ffc
1080
2080
0082
7fff
0080
0080
0080
0000
0000
ENDCHAR
STARTCHAR ch-96
ENCODING 96
SWIDTH 1000 0
DWIDTH 16 0
BBX 16 16 0 -2
BITMAP
0810
2890
2890
3c91
4bff
0891
0892
0c94
0890
1890
6890
0881
0881
18ff
0000
0000
ENDCHAR
STARTCHAR ch-97
ENCODING 97
SWIDTH 1000 0
DWIDTH 16 0
BBX 16 16 0 -2
BITMAP
0410
2410
2410
3f90
2410
44fe
0410
0710
0c10
7410
0410
0412
05ff
0400
0000
0000
ENDCHAR
STARTCHAR ch-98
ENCODING 98
SWIDTH 1000 0
DWIDTH 16 0
BBX 16 16 0 -2
BITMAP
0080
3fff
2081
4882
0890
0ff8
0880
1080
0082
7fff
0080
0080
0080
0080
0000
0000
ENDCHAR
STARTCHAR ch-99
ENCODING 99
SWIDTH 1000 0
DWIDTH 16 0
BBX 16 16 0 -2
BITMAP
0800
29ff
2821
3c21
48a1
0861
0c21
1821
6821
0821
0841
0881
2912
100c
0000
0000
ENDCHAR
STARTCHAR ch-103
ENCODING 103
SWIDTH 1000 0
DWIDTH 16 0
BBX 16 16 0 -2
BITMAP
0420
2420
2442
3f7f
2484
4544
0744
0c48
7428
0410
0428
0444
0487
0702
0000
0000
ENDCHAR
STARTCHAR ch-105
ENCODING 105
SWIDTH 1000 0
DWIDTH 16 0
BBX 16 16 0 -2
BITMAP
0880
2880
2882
3dff
2a52
4852
0e52
1892
68a2
0922
0a42
0842
0894
0808
0000
0000
ENDCHAR
STARTCHAR ch-106
ENCODING 106
SWIDTH 1000 0
DWIDTH 16 0
BBX 16 16 0 -2
BITMAP
0810
2890
2890
3cfe
4890
0910
0c10
19ff
6810
0810
0810
0810
0810
0810
0000
0000
ENDCHAR
STARTCHAR ch-108
ENCODING 108
SWIDTH 1000 0
DWIDTH 16 0
BBX 16 16 0 -2
BITMAP
0810
2813
283c
3dd0
4910
0910
0dff
1831
2851
4891
0911
0a16
0810
0810
0000
0000
ENDCHAR
STARTCHAR ch-110
ENCODING 110
SWIDTH 1000 0
DWIDTH 16 0
BBX 16 16 0 -2
BITMAP
0448
044f
0bf8
1840
2822
4892
0c8e
0490
07f8
0880
1082
7fff
0080
0080
0000
0000
ENDCHAR
STARTCHAR ch-111
ENCODING 111
SWIDTH 1000 0
DWIDTH 16 0
BBX 16 16 0 -2
BITMAP
0410
1410
1410
1f12
25ff
2410
4410
0712
0cff
3482
0482
0482
04fe
0482
0000
0000
ENDCHAR
STARTCHAR ch-112
ENCODING 112
SWIDTH 1000 0
DWIDTH 16 0
BBX 16 16 0 -2
BITMAP
0810
2810
2810
3dff
4911
0911
0d11
19ff
6911
0911
0911
09ff
0901
0800
0000
0000
ENDCHAR
STARTCHAR ch-114
ENCODING 114
SWIDTH 1000 0
DWIDTH 16 0
BBX 16 16 0 -2
BITMAP
0810
2890
2890
3efe
4910
0810
0a10
0cfe
1810
6810
0810
0812
29ff
1000
0000
0000
ENDCHAR
STARTCHAR ch-115
ENCODING 115
SWIDTH 1000 0
DWIDTH 16 0
BBX 16 16 0 -2
BITMAP
0802
28ff
2882
3ea2
2892
488a
09ff
0c82
18a2
2892
488a
08ff
0802
081c
0000
0000
ENDCHAR
STARTCHAR ch-116
ENCODING 116
SWIDTH 1000 0
DWIDTH 16 0
BBX 16 16 0 -2
BITMAP
0801
29fe
2888
3e88
488a
08ff
0888
0c88
1888
2888
48a8
08c5
1883
093d
0000
0000
ENDCHAR
STARTCHAR ch-118
ENCODING 118
SWIDTH 1000 0
DWIDTH 16 0
BBX 16 16 0 -2
BITMAP
1084
0888
0490
1ffc
0100
7fff
0410
0888
1284
27f2
4881
1ffc
0080
0080
0000
0000
ENDCHAR
STARTCHAR ch-119
ENCODING 119
SWIDTH 1000 0
DWIDTH 16 0
BBX 16 16 0 -2
BITMAP
0810
2828
2844
3e82
4901
08fe
0c10
0810
1810
28fe
4810
0810
2810
11ff
0000
0000
ENDCHAR
STARTCHAR ch-120
ENCODING 120
SWIDTH 1000 0
DWIDTH 16 0
BBX 16 16 0 -2
BITMAP
0820
2810
29ff
3d01
4901
087c
0c08
1810
29ff
4810
0810
0810
0850
0820
0000
0000
ENDCHAR
STARTCHAR ch-121
ENCODING 121
SWIDTH 1000 0
DWIDTH 16 0
BBX 16 16 0 -2
BITMAP
0820
2824
29fe
3e20
2822
4bff
0c08
1808
6bff
0888
0848
0808
2828
1010
0000
0000
ENDCHAR
STARTCHAR ch-123
ENCODING 123
SWIDTH 1000 0
DWIDTH 16 0
BBX 16 16 0 -2
BITMAP
08a0
28a1
2882
3df4
4889
0882
0ca4
08a9
18a2
28a4
48a8
0921
2a21
101f
0000
0000
ENDCHAR
STARTCHAR ch-124
ENCODING 124
SWIDTH 1000 0
DWIDTH 16 0
BBX 16 16 0 -2
BITMAP
0802
29ff
2800
3e49
2892
4924
0892
0c49
1800
69ff
0810
0810
2812
11ff
0000
0000
ENDCHAR
STARTCHAR ch-125
ENCODING 125
SWIDTH 1000 0
DWIDTH 16 0
BBX 16 16 0 -2
BITMAP
0080
7fff
0120
07c0
0080
7fff
4211
47f1
0480
07f0
0880
1ffc
0080
0080
0000
0000
ENDCHAR
STARTCHAR ch-126
ENCODING 126
SWIDTH 1000 0
DWIDTH 16 0
BBX 16 16 0 -2
BITMAP
0404
04fe
1420
1f7c
2424
2444
4544
06ff
0c00
34fc
0484
0484
04fc
0484
0000
0000
ENDCHAR
STARTCHAR ch-127
ENCODING 127
SWIDTH 1000 0
DWIDTH 16 0
BBX 16 16 0 -2
BITMAP
0810
2890
2894
3efe
4910
0812
09ff
0e00
1800
68fe
0882
0882
28fe
1082
0000
0000
ENDCHAR
STARTCHAR ch-128
ENCODING 128
SWIDTH 1000 0
DWIDTH 16 0
BBX 16 16 0 -2
BITMAP
1ffc
1004
1ffc
1448
1250
11cc
1644
1240
13f8
1440
1042
2fff
4040
0040
0000
0000
ENDCHAR
STARTCHAR ch-129
ENCODING 129
SWIDTH 1000 0
DWIDTH 16 0
BBX 16 16 0 -2
BITMAP
0101
7e01
0811
7f11
1c11
2a11
0887
1080
1ffc
2080
7fff
0080
0080
0080
0000
0000
ENDCHAR
STARTCHAR ch-132
ENCODING 132
SWIDTH 1000 0
DWIDTH 16 0
BBX 16 16 0 -2
BITMAP
0420
15fe
1450
1f4c
2484
27ff
4404
06f4
0c94
3494
04f4
0404
0414
0408
0000
0000
ENDCHAR
STARTCHAR ch-133
ENCODING 133
SWIDTH 1000 0
DWIDTH 16 0
BBX 16 16 0 -2
BITMAP
09ff
2901
2945
3d29
49ff
0d11
0911
0955
1955
2955
497d
0901
0905
0902
0000
0000
ENDCHAR
STARTCHAR ch-134
ENCODING 134
SWIDTH 1000 0
DWIDTH 16 0
BBX 16 16 0 -2
BITMAP
0810
4810
49ff
7c10
48fe
4882
0cfe
0882
18fe
2882
48fe
0882
0882
0bff
0000
0000
ENDCHAR
STARTCHAR ch-136
ENCODING 136
SWIDTH 1000 0
DWIDTH 16 0
BBX 16 16 0 -2
BITMAP
0892
0854
2838
29ff
3c10
49ff
0828
0c44
08fe
1945
2844
4848
0841
087f
0000
0000
ENDCHAR
STARTCHAR ch-137
ENCODING 137
SWIDTH 1000 0
DWIDTH 16 0
BBX 16 16 0 -2
BITMAP
0810
29ff
2800
3efe
2882
48fe
0c00
087c
1808
2810
49ff
0808
0828
0810
0000
0000
ENDCHAR
STARTCHAR ch-139
ENCODING 139
SWIDTH 1000 0
DWIDTH 16 0
BBX 16 16 0 -2
BITMAP
08fc
2884
2884
3cfc
4884
48fc
0884
0cfc
1884
6884
0bff
0884
0902
0a01
0000
0000
ENDCHAR
STARTCHAR ch-140
ENCODING 140
SWIDTH 1000 0
DWIDTH 16 0
BBX 16 16 0 -2
BITMAP
09ef
2921
2921
3d21
49ef
0900
0d0f
09e1
1909
2906
09e6
0909
0909
0909
0000
0000
ENDCHAR
STARTCHAR ch-141
ENCODING 141
SWIDTH 1000 0
DWIDTH 16 0
BBX 16 16 0 -2
BITMAP
0808
2bbe
288a
3eff
490a
0a3e
0b88
0cbe
1a88
6abe
0988
0948
0a20
0c1f
0000
0000
ENDCHAR
STARTCHAR ch-142
ENCODING 142
SWIDTH 1000 0
DWIDTH 16 0
BBX 16 16 0 -2
BITMAP
0802
3e02
087f
7f22
0812
3e02
0802
7f46
0840
0ffc
1040
3ffe
0040
0040
0000
0000
ENDCHAR
STARTCHAR ch-144
ENCODING 144
SWIDTH 1000 0
DWIDTH 16 0
BBX 16 16 0 -2
BITMAP
0842
2b82
2892
3c8a
4be2
0892
0c8a
09c2
1abf
2882
4882
0882
0882
0882
0000
0000
ENDCHAR
STARTCHAR ch-145
ENCODING 145
SWIDTH 1000 0
DWIDTH 16 0
BBX 16 16 0 -2
BITMAP
08fe
2882
28fe
3e82
48fe
0882
0cfe
0812
1811
29ff
0828
0844
0882
0901
0000
0000
ENDCHAR
STARTCHAR ch-146
ENCODING 146
SWIDTH 1000 0
DWIDTH 16 0
BBX 16 16 0 -2
BITMAP
0840
0820
2bfe
3cf8
4888
08f8
0c00
0bfe
1a02
6afa
0a8a
0afa
0a02
0a06
0000
0000
ENDCHAR
STARTCHAR ch-147
ENCODING 147
SWIDTH 1000 0
DWIDTH 16 0
BBX 16 16 0 -2
BITMAP
0840
287f
2841
3ea5
48fd
0a21
0c4e
0840
187f
2841
48a5
08fd
0821
084e
0000
0000
ENDCHAR
STARTCHAR ch-149
ENCODING 149
SWIDTH 1000 0
DWIDTH 16 0
BBX 16 16 0 -2
BITMAP
2844
29ff
3c44
4844
09ff
0880
0cfe
0992
1afe
2892
08fe
0892
0892
0906
0000
0000
ENDCHAR
STARTCHAR ch-150
ENCODING 150
SWIDTH 1000 0
DWIDTH 16 0
BBX 16 16 0 -2
BITMAP
0808
2a2a
1c1c
1414
2222
7fff
4881
1ffc
2080
0080
3ffe
0080
0080
0080
0000
0000
ENDCHAR
STARTCHAR ch-151
ENCODING 151
SWIDTH 1000 0
DWIDTH 16 0
BBX 16 16 0 -2
BITMAP
0810
2810
29ff
3d11
487c
0810
087c
0c10
19ff
2800
08fe
0882
0882
08fe
0000
0000
ENDCHAR
STARTCHAR ch-152
ENCODING 152
SWIDTH 1000 0
DWIDTH 16 0
BBX 16 16 0 -2
BITMAP
0040
3fff
2208
2fbe
2208
271c
2aaa
2208
2440
2ffe
5040
1fff
0040
0040
0000
0000
ENDCHAR
STARTCHAR ch-154
ENCODING 154
SWIDTH 1000 0
DWIDTH 16 0
BBX 16 16 0 -2
BITMAP
3fc2
2042
3fc2
203f
2f92
200a
5fc2
0a82
124e
0840
0ffc
1040
2ffe
0040
0000
0000
ENDCHAR
STARTCHAR ch-155
ENCODING 155
SWIDTH 1000 0
DWIDTH 16 0
BBX 16 16 0 -2
BITMAP
0410
3f9f
0434
7fc8
1514
24a2
3fff
2440
27fc
2840
2ffe
2040
4040
0040
0000
0000
ENDCHAR
STARTCHAR ch-157
ENCODING 157
SWIDTH 1000 0
DWIDTH 16 0
BBX 16 16 0 -2
BITMAP
0810
28fe
2844
3dff
2800
48fe
0892
0cfe
1892
68fe
0810
08fe
0810
09ff
0000
0000
ENDCHAR
STARTCHAR ch-158
ENCODING 158
SWIDTH 1000 0
DWIDTH 16 0
BBX 16 16 0 -2
BITMAP
28fe
2810
3dff
4844
08fe
0945
0c7c
0800
79ff
0901
097d
0945
097d
0903
0000
0000
ENDCHAR
STARTCHAR ch-161
ENCODING 161
SWIDTH 1000 0
DWIDTH 16 0
BBX 16 16 0 -2
BITMAP
0bff
2a24
2aff
3e24
2a7e
4a4a
0e7e
0a4a
1a7e
0a08
2aff
4a89
0cbd
0887
0000
0000
ENDCHAR
STARTCHAR ch-162
ENCODING 162
SWIDTH 1000 0
DWIDTH 16 0
BBX 16 16 0 -2
BITMAP
0810
29ff
2810
3cfe
49ff
0929
0dff
18fe
28fa
48be
0882
08fe
2882
1101
0000
0000
ENDCHAR
STARTCHAR ch-163
ENCODING 163
SWIDTH 1000 0
DWIDTH 16 0
BBX 16 16 0 -2
BITMAP
0892
2924
2892
3c00
49ff
0911
0929
0dff
1800
29b4
496c
09b5
096d
09b3
0000
0000
ENDCHAR
STARTCHAR ch-164
ENCODING 164
SWIDTH 1000 0
DWIDTH 16 0
BBX 16 16 0 -2
BITMAP
09ff
2929
3dff
4880
0948
0bef
0808
19ef
2920
49e8
092f
09e8
0929
0a6f
0000
0000
ENDCHAR
STARTCHAR ch-165
ENCODING 165
SWIDTH 1000 0
DWIDTH 16 0
BBX 16 16 0 -2
BITMAP
0808
29ff
2924
3dff
49a5
09ff
0d55
1966
2944
4955
0a77
0800
0929
0929
0000
0000
ENDCHAR
STARTCHAR ch-166
ENCODING 166
SWIDTH 1000 0
DWIDTH 16 0
BBX 16 16 0 -2
BITMAP
09ff
0901
29ff
2901
3dff
2844
49ff
0c44
09ff
1896
29f9
4838
0854
0892
0000
0000
ENDCHAR
STARTCHAR ch-167
ENCODING 167
SWIDTH 1000 0
DWIDTH 16 0
BBX 16 16 0 -2
BITMAP
0844
0828
29ff
2810
3dff
4810
09ff
0ce5
19ff
68e4
0955
08e6
082d
08c3
0000
0000
ENDCHAR
STARTCHAR ch-168
ENCODING 168
SWIDTH 1000 0
DWIDTH 16 0
BBX 16 16 0 -2
BITMAP
2424
7f7f
2424
3e3e
2424
3e3e
2424
3f3f
0880
1ffc
2080
7fff
0080
0080
0000
0000
ENDCHAR
STARTCHAR ch-169
ENCODING 169
SWIDTH 1000 0
DWIDTH 16 0
BBX 16 16 0 -2
BITMAP
3e3e
086a
7fbe
1c2a
2a3e
140a
7f1d
142f
0849
368f
0ff8
1080
3ffc
0080
0000
0000
ENDCHAR
STARTCHAR ch-170
ENCODING 170
SWIDTH 1000 0
DWIDTH 16 0
BBX 16 16 0 -2
BITMAP
1050
13fe
5020
7d77
5155
15f7
1d74
1555
37f7
5108
12fc
1150
1220
31de
0000
0000
ENDCHAR
STARTCHAR ch-172
ENCODING 172
SWIDTH 1000 0
DWIDTH 16 0
BBX 16 16 0 -2
BITMAP
00a0
0098
0088
0082
7fff
0080
0080
0140
0140
0220
0210
0408
0807
3002
0000
0000
ENDCHAR
STARTCHAR ch-174
ENCODING 174
SWIDTH 1000 0
DWIDTH 16 0
BBX 16 16 0 -2
BITMAP
0204
0202
7fff
0400
0800
1010
2410
4220
0140
0080
0140
0220
0410
780f
0000
0000
ENDCHAR
STARTCHAR ch-175
ENCODING 175
SWIDTH 1000 0
DWIDTH 16 0
BBX 16 16 0 -2
BITMAP
2204
14fe
0884
1484
2484
4484
0ca4
1498
2480
4480
0481
0481
287f
1000
0000
0000
ENDCHAR
STARTCHAR ch-176
ENCODING 176
SWIDTH 1000 0
DWIDTH 16 0
BBX 16 16 0 -2
BITMAP
4440
2840
1048
2bfc
4448
0448
0c48
1448
2448
4448
0489
0489
2909
1207
0000
0000
ENDCHAR
STARTCHAR ch-180
ENCODING 180
SWIDTH 1000 0
DWIDTH 16 0
BBX 16 16 0 -2
BITMAP
45fc
2820
1020
2820
4422
07ff
0c20
1420
2420
4420
0420
0420
2820
1020
0000
0000
ENDCHAR
STARTCHAR ch-181
ENCODING 181
SWIDTH 1000 0
DWIDTH 16 0
BBX 16 16 0 -2
BITMAP
4480
2882
10ff
2900
4400
04fe
0c04
1408
2410
4420
0441
0481
2901
10ff
0000
0000
ENDCHAR
STARTCHAR ch-186
ENCODING 186
SWIDTH 1000 0
DWIDTH 16 0
BBX 16 16 0 -2
BITMAP
4410
2812
11ff
2800
4400
047c
0c44
1444
2444
4444
0444
0485
2905
1207
0000
0000
ENDCHAR
STARTCHAR ch-189
ENCODING 189
SWIDTH 1000 0
DWIDTH 16 0
BBX 16 16 0 -2
BITMAP
4400
28fe
1084
2884
4484
04ff
0c14
1424
2444
4484
0504
0404
2824
1018
0000
0000
ENDCHAR
STARTCHAR ch-191
ENCODING 191
SWIDTH 1000 0
DWIDTH 16 0
BBX 16 16 0 -2
BITMAP
4440
2820
1010
29ff
4410
0410
0c18
1414
2412
4410
0410
0410
2810
1010
0000
0000
ENDCHAR
STARTCHAR ch-192
ENCODING 192
SWIDTH 1000 0
DWIDTH 16 0
BBX 16 16 0 -2
BITMAP
0428
2424
2420
2422
7fff
0420
0420
7c50
2450
2488
2488
2504
2602
4401
0000
0000
ENDCHAR
STARTCHAR ch-193
ENCODING 193
SWIDTH 1000 0
DWIDTH 16 0
BBX 16 16 0 -2
BITMAP
4420
2820
1048
2884
4502
05ff
0c49
1448
2448
4448
0489
0489
2909
1207
0000
0000
ENDCHAR
STARTCHAR ch-194
ENCODING 194
SWIDTH 1000 0
DWIDTH 16 0
BBX 16 16 0 -2
BITMAP
4002
22ff
1410
0810
1410
2410
04fe
0c10
1410
2410
4410
0412
29ff
1000
0000
0000
ENDCHAR
STARTCHAR ch-195
ENCODING 195
SWIDTH 1000 0
DWIDTH 16 0
BBX 16 16 0 -2
BITMAP
4404
29fe
1044
2844
4444
0444
0c44
15ff
2444
4444
0444
0444
2bff
1000
0000
0000
ENDCHAR
STARTCHAR ch-196
ENCODING 196
SWIDTH 1000 0
DWIDTH 16 0
BBX 16 16 0 -2
BITMAP
0220
2220
1420
0822
14a6
24a8
44b0
0c20
1420
2450
4450
0488
2907
1202
0000
0000
ENDCHAR
STARTCHAR ch-197
ENCODING 197
SWIDTH 1000 0
DWIDTH 16 0
BBX 16 16 0 -2
BITMAP
0400
4406
2818
11f0
2810
4410
0410
0dff
1410
2410
4410
0410
0810
31ff
0000
0000
ENDCHAR
STARTCHAR ch-198
ENCODING 198
SWIDTH 1000 0
DWIDTH 16 0
BBX 16 16 0 -2
BITMAP
4410
2810
1010
29ff
4511
0511
0d11
15ff
2511
4410
0410
0410
2810
1010
0000
0000
ENDCHAR
STARTCHAR ch-201
ENCODING 201
SWIDTH 1000 0
DWIDTH 16 0
BBX 16 16 0 -2
BITMAP
4400
29fe
1008
2810
4820
0840
18a4
2922
4a21
0820
0820
0820
53ff
2000
0000
0000
ENDCHAR
STARTCHAR ch-202
ENCODING 202
SWIDTH 1000 0
DWIDTH 16 0
BBX 16 16 0 -2
BITMAP
1ff8
1008
1ff8
1008
1ff8
1008
1ffa
0081
0080
7fff
0140
0220
0410
380e
0000
0000
ENDCHAR
STARTCHAR ch-203
ENCODING 203
SWIDTH 1000 0
DWIDTH 16 0
BBX 16 16 0 -2
BITMAP
4400
28fe
1000
2800
4400
0dff
1410
2410
4454
0493
0511
0410
2850
1020
0000
0000
ENDCHAR
STARTCHAR ch-204
ENCODING 204
SWIDTH 1000 0
DWIDTH 16 0
BBX 16 16 0 -2
BITMAP
4410
2890
1090
28fe
4510
0410
0c10
1410
24fe
4410
0410
0410
2810
11ff
0000
0000
ENDCHAR
STARTCHAR ch-206
ENCODING 206
SWIDTH 1000 0
DWIDTH 16 0
BBX 16 16 0 -2
BITMAP
4402
28ff
1092
2892
4492
04fe
0c92
1492
2492
44fe
0492
0410
2810
1010
0000
0000
ENDCHAR
STARTCHAR ch-208
ENCODING 208
SWIDTH 1000 0
DWIDTH 16 0
BBX 16 16 0 -2
BITMAP
0004
440e
29f0
1108
2948
4948
0948
1948
2948
4944
0954
0aea
2c49
1000
0000
0000
ENDCHAR
STARTCHAR ch-209
ENCODING 209
SWIDTH 1000 0
DWIDTH 16 0
BBX 16 16 0 -2
BITMAP
4420
2850
1088
2904
4a02
0cf1
1800
2bfe
4804
0808
0810
08a0
5040
2020
0000
0000
ENDCHAR
STARTCHAR ch-210
ENCODING 210
SWIDTH 1000 0
DWIDTH 16 0
BBX 16 16 0 -2
BITMAP
4450
2850
13fc
2854
4454
05fc
0d50
1552
25ff
4452
049a
0494
2910
1210
0000
0000
ENDCHAR
STARTCHAR ch-212
ENCODING 212
SWIDTH 1000 0
DWIDTH 16 0
BBX 16 16 0 -2
BITMAP
0402
45ff
2902
1102
29fe
4900
0940
1940
2940
497e
0940
0941
1241
607f
0000
0000
ENDCHAR
STARTCHAR ch-214
ENCODING 214
SWIDTH 1000 0
DWIDTH 16 0
BBX 16 16 0 -2
BITMAP
4400
2810
1010
29ff
4901
0901
1800
2808
4848
0844
0882
0901
5201
2000
0000
0000
ENDCHAR
STARTCHAR ch-215
ENCODING 215
SWIDTH 1000 0
DWIDTH 16 0
BBX 16 16 0 -2
BITMAP
0240
2240
1442
08ff
1482
2502
04fa
0c92
1492
2492
44f2
0402
2814
1008
0000
0000
ENDCHAR
STARTCHAR ch-216
ENCODING 216
SWIDTH 1000 0
DWIDTH 16 0
BBX 16 16 0 -2
BITMAP
4414
2812
1010
29ff
4510
0d10
1511
2512
4514
0548
0595
0923
5201
2000
0000
0000
ENDCHAR
STARTCHAR ch-217
ENCODING 217
SWIDTH 1000 0
DWIDTH 16 0
BBX 16 16 0 -2
BITMAP
22fe
1684
0884
1484
24fc
4484
0c84
1484
24fc
4484
0484
0484
2bff
1000
0000
0000
ENDCHAR
STARTCHAR ch-218
ENCODING 218
SWIDTH 1000 0
DWIDTH 16 0
BBX 16 16 0 -2
BITMAP
0400
4400
28fe
1082
2882
4482
04fe
0c82
1482
2482
44fe
0482
0800
31ff
0000
0000
ENDCHAR
STARTCHAR ch-220
ENCODING 220
SWIDTH 1000 0
DWIDTH 16 0
BBX 16 16 0 -2
BITMAP
4410
2810
1012
29ff
4410
0410
0c12
14ff
2482
4482
0482
0482
28fe
1082
0000
0000
ENDCHAR
STARTCHAR ch-223
ENCODING 223
SWIDTH 1000 0
DWIDTH 16 0
BBX 16 16 0 -2
BITMAP
4400
25ff
1800
1800
24fe
4482
0c82
14fe
2482
4482
04fe
0482
0800
31ff
0000
0000
ENDCHAR
STARTCHAR ch-224
ENCODING 224
SWIDTH 1000 0
DWIDTH 16 0
BBX 16 16 0 -2
BITMAP
45fe
2d04
1104
29fc
4504
0504
0dfc
1542
2546
4528
0518
0544
2987
1102
0000
0000
ENDCHAR
STARTCHAR ch-225
ENCODING 225
SWIDTH 1000 0
DWIDTH 16 0
BBX 16 16 0 -2
BITMAP
4420
2822
13ff
2800
4488
0504
0e0a
1488
2490
4450
0470
0488
2907
1202
0000
0000
ENDCHAR
STARTCHAR ch-227
ENCODING 227
SWIDTH 1000 0
DWIDTH 16 0
BBX 16 16 0 -2
BITMAP
4890
5090
2090
5492
0a94
0998
1890
2998
4a94
0c92
0890
0910
1211
641f
0000
0000
ENDCHAR
STARTCHAR ch-228
ENCODING 228
SWIDTH 1000 0
DWIDTH 16 0
BBX 16 16 0 -2
BITMAP
4410
2810
11ff
2810
4410
0410
0cfe
1400
24fe
0482
0482
0482
08fe
3082
0000
0000
ENDCHAR
STARTCHAR ch-230
ENCODING 230
SWIDTH 1000 0
DWIDTH 16 0
BBX 16 16 0 -2
BITMAP
44fe
28aa
10aa
28aa
45ff
04aa
0caa
14aa
25ff
44aa
04aa
04aa
08aa
3086
0000
0000
ENDCHAR
STARTCHAR ch-232
ENCODING 232
SWIDTH 1000 0
DWIDTH 16 0
BBX 16 16 0 -2
BITMAP
4414
2812
1010
2bff
4410
0490
0c94
17f4
2494
4494
0488
0515
2865
1002
0000
0000
ENDCHAR
STARTCHAR ch-233
ENCODING 233
SWIDTH 1000 0
DWIDTH 16 0
BBX 16 16 0 -2
BITMAP
0420
4410
29ff
1101
2a0a
4808
0bff
1808
2888
4848
0848
0808
5028
2010
0000
0000
ENDCHAR
STARTCHAR ch-234
ENCODING 234
SWIDTH 1000 0
DWIDTH 16 0
BBX 16 16 0 -2
BITMAP
49ff
2901
1101
297d
4901
097d
1945
2945
4945
097d
0945
0901
5105
2102
0000
0000
ENDCHAR
STARTCHAR ch-235
ENCODING 235
SWIDTH 1000 0
DWIDTH 16 0
BBX 16 16 0 -2
BITMAP
4440
2842
13fc
2848
4850
0fff
1840
2880
4940
0a7e
0840
0840
5040
207f
0000
0000
ENDCHAR
STARTCHAR ch-243
ENCODING 243
SWIDTH 1000 0
DWIDTH 16 0
BBX 16 16 0 -2
BITMAP
4420
2850
1088
2904
46fb
0420
0c24
17fe
2420
44a8
0522
0622
28a0
1040
0000
0000
ENDCHAR
STARTCHAR ch-244
ENCODING 244
SWIDTH 1000 0
DWIDTH 16 0
BBX 16 16 0 -2
BITMAP
4510
2912
1114
29d8
0911
0951
1b8f
2920
4824
09fe
0820
0822
57ff
2000
0000
0000
ENDCHAR
STARTCHAR ch-246
ENCODING 246
SWIDTH 1000 0
DWIDTH 16 0
BBX 16 16 0 -2
BITMAP
4444
2828
1010
2828
4454
05ff
0448
0cff
1549
2449
4449
044b
2808
1008
0000
0000
ENDCHAR
STARTCHAR ch-247
ENCODING 247
SWIDTH 1000 0
DWIDTH 16 0
BBX 16 16 0 -2
BITMAP
45fe
2902
1102
29fe
4400
05fe
0d02
15fe
2502
45fe
0502
0502
290a
1104
0000
0000
ENDCHAR
STARTCHAR ch-248
ENCODING 248
SWIDTH 1000 0
DWIDTH 16 0
BBX 16 16 0 -2
BITMAP
4002
24ff
1492
0892
14fe
6492
0492
0cfe
1410
2410
44fe
0410
2810
11ff
0000
0000
ENDCHAR
STARTCHAR ch-249
ENCODING 249
SWIDTH 1000 0
DWIDTH 16 0
BBX 16 16 0 -2
BITMAP
0820
4820
2bff
1020
2924
4924
0aaa
1c71
2820
4820
0850
0888
1104
6603
0000
0000
ENDCHAR
STARTCHAR ch-250
ENCODING 250
SWIDTH 1000 0
DWIDTH 16 0
BBX 16 16 0 -2
BITMAP
0420
4412
2bff
1000
2800
44fc
0400
0cfc
1400
44fe
0484
0484
28fc
1084
0000
0000
ENDCHAR
STARTCHAR ch-251
ENCODING 251
SWIDTH 1000 0
DWIDTH 16 0
BBX 16 16 0 -2
BITMAP
4440
2888
1104
2bfe
4888
1982
2afc
4884
0988
0a50
0820
0858
5087
2302
0000
0000
ENDCHAR
STARTCHAR ch-252
ENCODING 252
SWIDTH 1000 0
DWIDTH 16 0
BBX 16 16 0 -2
BITMAP
4240
2424
19fe
1904
25fc
4504
0dfc
1542
2524
4518
0508
0547
2982
1100
0000
0000
ENDCHAR
STARTCHAR ch-253
ENCODING 253
SWIDTH 1000 0
DWIDTH 16 0
BBX 16 16 0 -2
BITMAP
4002
24ff
1482
0882
14fe
6482
0482
0cfe
1482
6482
04fe
0444
2883
1301
0000
0000
ENDCHAR
STARTCHAR ch-254
ENCODING 254
SWIDTH 1000 0
DWIDTH 16 0
BBX 16 16 0 -2
BITMAP
4481
2882
109c
2bd0
4890
089f
0892
18d2
2b92
4892
0892
0892
2aa2
1102
0000
0000
ENDCHAR
STARTCHAR ch-255
ENCODING 255
SWIDTH 1000 0
DWIDTH 16 0
BBX 16 16 0 -2
BITMAP
4801
539e
2084
5104
0a04
0917
1894
2894
4894
0894
0abf
0900
5280
247f
0000
0000
ENDCHAR
STARTCHAR ch-256
ENCODING 256
SWIDTH 1000 0
DWIDTH 16 0
BBX 16 16 0 -2
BITMAP
4a08
2908
1088
282a
4849
0a09
0909
1889
2802
4884
0908
0a10
2820
10c0
0000
0000
ENDCHAR
STARTCHAR ch-257
ENCODING 257
SWIDTH 1000 0
DWIDTH 16 0
BBX 16 16 0 -2
BITMAP
4461
2b81
1085
2885
48a5
0ff5
1885
2985
49c5
0aa1
0a91
0c81
5085
2082
0000
0000
ENDCHAR
STARTCHAR ch-263
ENCODING 263
SWIDTH 1000 0
DWIDTH 16 0
BBX 16 16 0 -2
BITMAP
4820
283e
1020
2bff
4a21
0afd
0a20
1a20
2a3e
4a48
0a48
0a48
1489
610f
0000
0000
ENDCHAR
STARTCHAR ch-264
ENCODING 264
SWIDTH 1000 0
DWIDTH 16 0
BBX 16 16 0 -2
BITMAP
4880
2900
13fe
2e22
4bfe
0a22
0bfe
1a42
2890
4910
0fff
0810
1010
6010
0000
0000
ENDCHAR
STARTCHAR ch-266
ENCODING 266
SWIDTH 1000 0
DWIDTH 16 0
BBX 16 16 0 -2
BITMAP
4422
29cf
1102
2902
45ce
0502
0d02
15fe
254a
4448
0448
0489
2909
1207
0000
0000
ENDCHAR
STARTCHAR ch-267
ENCODING 267
SWIDTH 1000 0
DWIDTH 16 0
BBX 16 16 0 -2
BITMAP
0088
0084
1ffc
0080
0140
0220
0410
0909
0909
7f7f
0808
1414
2222
4141
0000
0000
ENDCHAR
STARTCHAR ch-268
ENCODING 268
SWIDTH 1000 0
DWIDTH 16 0
BBX 16 16 0 -2
BITMAP
0408
040a
7fc9
2488
24bf
5548
5548
0408
0e08
1508
2488
4454
0422
0441
0000
0000
ENDCHAR
STARTCHAR ch-271
ENCODING 271
SWIDTH 1000 0
DWIDTH 16 0
BBX 16 16 0 -2
BITMAP
45ff
2900
11ff
2901
49ff
0900
097f
1941
297f
4941
097f
0941
2a45
1082
0000
0000
ENDCHAR
STARTCHAR ch-273
ENCODING 273
SWIDTH 1000 0
DWIDTH 16 0
BBX 16 16 0 -2
BITMAP
49ff
2901
11ff
2901
49ff
0901
0800
1908
2908
49ef
0908
0929
2929
11ef
0000
0000
ENDCHAR
STARTCHAR ch-274
ENCODING 274
SWIDTH 1000 0
DWIDTH 16 0
BBX 16 16 0 -2
BITMAP
3f08
210a
3f08
2108
3f7f
0008
3f08
2108
3f08
2108
3f14
2122
2141
4341
0000
0000
ENDCHAR
STARTCHAR ch-275
ENCODING 275
SWIDTH 1000 0
DWIDTH 16 0
BBX 16 16 0 -2
BITMAP
45fc
2924
1124
29fc
4924
0924
09fc
1820
2fff
4820
08a8
0927
5222
2020
0000
0000
ENDCHAR
STARTCHAR ch-278
ENCODING 278
SWIDTH 1000 0
DWIDTH 16 0
BBX 16 16 0 -2
BITMAP
44fc
2884
10fc
2884
44fc
0400
0dfe
1502
2502
05fe
0502
0502
29fe
1102
0000
0000
ENDCHAR
STARTCHAR ch-279
ENCODING 279
SWIDTH 1000 0
DWIDTH 16 0
BBX 16 16 0 -2
BITMAP
4420
2bfe
1020
2850
4888
0bff
0804
19e4
2924
4924
09e4
0904
5014
2008
0000
0000
ENDCHAR
STARTCHAR ch-280
ENCODING 280
SWIDTH 1000 0
DWIDTH 16 0
BBX 16 16 0 -2
BITMAP
4541
2941
11f1
2a45
4845
0bf5
1845
29f5
4955
0955
0951
0951
2845
1042
0000
0000
ENDCHAR
STARTCHAR ch-281
ENCODING 281
SWIDTH 1000 0
DWIDTH 16 0
BBX 16 16 0 -2
BITMAP
4801
2bfe
1a42
2924
4898
0bfe
1822
2fff
4822
0bfe
0820
5020
2020
20e0
0000
0000
ENDCHAR
STARTCHAR ch-283
ENCODING 283
SWIDTH 1000 0
DWIDTH 16 0
BBX 16 16 0 -2
BITMAP
4400
29fc
1008
2830
4812
0bff
1810
2850
4820
0bfe
0a52
0a52
5252
27ff
0000
0000
ENDCHAR
STARTCHAR ch-284
ENCODING 284
SWIDTH 1000 0
DWIDTH 16 0
BBX 16 16 0 -2
BITMAP
4420
2824
13fe
2820
45fc
0420
0fff
15fc
2504
45fc
0504
05fc
2904
110c
0000
0000
ENDCHAR
STARTCHAR ch-285
ENCODING 285
SWIDTH 1000 0
DWIDTH 16 0
BBX 16 16 0 -2
BITMAP
0440
4424
2bfe
1088
4888
0954
0a22
1820
2bff
4820
0820
0820
5020
2020
0000
0000
ENDCHAR
STARTCHAR ch-286
ENCODING 286
SWIDTH 1000 0
DWIDTH 16 0
BBX 16 16 0 -2
BITMAP
4420
2850
1088
2904
4afb
0c20
1820
2bfe
4820
09fc
0904
0904
51fc
2104
0000
0000
ENDCHAR
STARTCHAR ch-290
ENCODING 290
SWIDTH 1000 0
DWIDTH 16 0
BBX 16 16 0 -2
BITMAP
448f
2889
1089
2be9
488f
0889
1be9
2a2f
4a29
0a29
0be9
0811
5025
2042
0000
0000
ENDCHAR
STARTCHAR ch-291
ENCODING 291
SWIDTH 1000 0
DWIDTH 16 0
BBX 16 16 0 -2
BITMAP
0484
494a
3132
2932
454a
0dfe
1484
2542
46fd
0584
0648
0430
2830
11ce
0000
0000
ENDCHAR
STARTCHAR ch-293
ENCODING 293
SWIDTH 1000 0
DWIDTH 16 0
BBX 16 16 0 -2
BITMAP
45fc
2924
1124
29fc
4924
0924
19fc
2800
4fff
0924
0918
0948
5187
2102
0000
0000
ENDCHAR
STARTCHAR ch-294
ENCODING 294
SWIDTH 1000 0
DWIDTH 16 0
BBX 16 16 0 -2
BITMAP
4bfe
3202
3206
4afa
0a22
0afa
0aaa
1aaa
2aaa
4afa
0a22
0a2a
2afb
1409
0000
0000
ENDCHAR
STARTCHAR ch-295
ENCODING 295
SWIDTH 1000 0
DWIDTH 16 0
BBX 16 16 0 -2
BITMAP
0800
50fc
3084
48bc
08a4
08a4
1bff
2a01
4a79
0a49
0a49
0a79
2a49
1203
0000
0000
ENDCHAR
STARTCHAR ch-297
ENCODING 297
SWIDTH 1000 0
DWIDTH 16 0
BBX 16 16 0 -2
BITMAP
22fe
1482
08fe
1482
24fe
4410
0492
0cff
1490
44fe
0510
0412
2bff
1000
0000
0000
ENDCHAR
STARTCHAR ch-301
ENCODING 301
SWIDTH 1000 0
DWIDTH 16 0
BBX 16 16 0 -2
BITMAP
0820
503c
2044
50f8
0810
0bff
1880
29fa
4a4c
089c
092a
0849
1088
6010
0000
0000
ENDCHAR
STARTCHAR ch-304
ENCODING 304
SWIDTH 1000 0
DWIDTH 16 0
BBX 16 16 0 -2
BITMAP
2880
13ef
2885
4be5
0889
0bf1
0886
1820
2bfe
4820
0850
0888
2904
1202
0000
0000
ENDCHAR
STARTCHAR ch-305
ENCODING 305
SWIDTH 1000 0
DWIDTH 16 0
BBX 16 16 0 -2
BITMAP
45fc
2848
1030
2bfe
4852
0894
0822
1bff
2820
4870
08a8
0927
5222
2020
0000
0000
ENDCHAR
STARTCHAR ch-306
ENCODING 306
SWIDTH 1000 0
DWIDTH 16 0
BBX 16 16 0 -2
BITMAP
4400
29fe
1102
29fe
4902
09fe
1a00
2fff
4821
0a21
0a51
0a89
2bfd
1002
0000
0000
ENDCHAR
STARTCHAR ch-307
ENCODING 307
SWIDTH 1000 0
DWIDTH 16 0
BBX 16 16 0 -2
BITMAP
47df
2a41
1241
2a41
4bdf
0a00
0a1f
1bc1
2a11
4a11
0bca
0a04
2a0a
1211
0000
0000
ENDCHAR
STARTCHAR ch-308
ENCODING 308
SWIDTH 1000 0
DWIDTH 16 0
BBX 16 16 0 -2
BITMAP
44be
2884
1104
29ff
4b00
0d40
097e
1990
2910
49ff
0910
0928
2947
1182
0000
0000
ENDCHAR
STARTCHAR ch-309
ENCODING 309
SWIDTH 1000 0
DWIDTH 16 0
BBX 16 16 0 -2
BITMAP
0801
51ff
3100
49ff
0901
09ff
1900
297f
4955
0955
097f
0955
2a55
1455
0000
0000
ENDCHAR
STARTCHAR ch-310
ENCODING 310
SWIDTH 1000 0
DWIDTH 16 0
BBX 16 16 0 -2
BITMAP
4884
2848
13ff
2848
4848
09fe
094a
194a
298e
4902
097a
0902
29fe
1102
0000
0000
ENDCHAR
STARTCHAR ch-311
ENCODING 311
SWIDTH 1000 0
DWIDTH 16 0
BBX 16 16 0 -2
BITMAP
2214
1412
7f10
1410
7fff
5510
5510
5710
6110
4128
7f28
4144
7f47
4182
0000
0000
ENDCHAR
STARTCHAR ch-314
ENCODING 314
SWIDTH 1000 0
DWIDTH 16 0
BBX 16 16 0 -2
BITMAP
4402
29fc
1011
2911
4892
0800
0880
18fe
2910
4a10
08ff
0810
2911
11ff
0000
0000
ENDCHAR
STARTCHAR ch-315
ENCODING 315
SWIDTH 1000 0
DWIDTH 16 0
BBX 16 16 0 -2
BITMAP
07c8
5090
2124
5108
0952
09be
1908
2b11
4d7f
0908
091a
092a
1149
6318
0000
0000
ENDCHAR
STARTCHAR ch-316
ENCODING 316
SWIDTH 1000 0
DWIDTH 16 0
BBX 16 16 0 -2
BITMAP
4412
29ff
1010
28fe
4892
08fe
0892
18fe
2892
4804
09ff
0844
2824
100c
0000
0000
ENDCHAR
STARTCHAR ch-318
ENCODING 318
SWIDTH 1000 0
DWIDTH 16 0
BBX 16 16 0 -2
BITMAP
44fe
2882
10be
28a2
45ff
0501
0cfe
1482
24fe
4482
04fe
0482
4882
3102
0000
0000
ENDCHAR
STARTCHAR ch-319
ENCODING 319
SWIDTH 1000 0
DWIDTH 16 0
BBX 16 16 0 -2
BITMAP
4424
2bfe
1020
2fff
4800
09fc
0904
0904
19fc
28a2
4894
0988
2aa7
14c2
0000
0000
ENDCHAR
STARTCHAR ch-320
ENCODING 320
SWIDTH 1000 0
DWIDTH 16 0
BBX 16 16 0 -2
BITMAP
0210
4493
2911
1111
29d7
4911
09ff
0810
187c
2844
4828
0810
0828
19c7
0000
0000
ENDCHAR
STARTCHAR ch-322
ENCODING 322
SWIDTH 1000 0
DWIDTH 16 0
BBX 16 16 0 -2
BITMAP
45ff
2910
1120
297e
49c2
097e
0942
197e
2908
4928
0a4a
0889
2808
1018
0000
0000
ENDCHAR
STARTCHAR ch-323
ENCODING 323
SWIDTH 1000 0
DWIDTH 16 0
BBX 16 16 0 -2
BITMAP
0808
490a
4909
7f08
007f
7f08
0008
7f08
4108
7f08
0008
2214
1422
7f41
0000
0000
ENDCHAR
STARTCHAR ch-324
ENCODING 324
SWIDTH 1000 0
DWIDTH 16 0
BBX 16 16 0 -2
BITMAP
4484
2846
13f5
2804
45ef
0404
0de4
1404
25e4
4524
052a
052a
09e9
3129
0000
0000
ENDCHAR
STARTCHAR ch-325
ENCODING 325
SWIDTH 1000 0
DWIDTH 16 0
BBX 16 16 0 -2
BITMAP
449f
2904
13c4
2a44
4a5f
0a55
0bd5
1a15
2bd5
4a55
0a55
0a57
2bc4
1204
0000
0000
ENDCHAR
STARTCHAR ch-329
ENCODING 329
SWIDTH 1000 0
DWIDTH 16 0
BBX 16 16 0 -2
BITMAP
4410
29ff
1010
29ff
4810
09ff
0886
1979
2810
49ff
0854
0892
2911
1010
0000
0000
ENDCHAR
STARTCHAR ch-330
ENCODING 330
SWIDTH 1000 0
DWIDTH 16 0
BBX 16 16 0 -2
BITMAP
4410
2828
1054
2892
497d
0844
087c
1844
287c
4880
097e
0a42
2842
107e
0000
0000
ENDCHAR
STARTCHAR ch-332
ENCODING 332
SWIDTH 1000 0
DWIDTH 16 0
BBX 16 16 0 -2
BITMAP
45fe
2902
11fe
2902
49fe
0800
0bff
1a49
2bff
487c
0828
0810
2828
11c7
0000
0000
ENDCHAR
STARTCHAR ch-333
ENCODING 333
SWIDTH 1000 0
DWIDTH 16 0
BBX 16 16 0 -2
BITMAP
0420
45fe
2888
1bff
2800
09fc
0904
19fc
2904
49fc
0850
0891
2911
121f
0000
0000
ENDCHAR
STARTCHAR ch-334
ENCODING 334
SWIDTH 1000 0
DWIDTH 16 0
BBX 16 16 0 -2
BITMAP
227e
22a4
3e5c
0234
7eff
2224
420c
0080
7fff
0140
0220
0410
0808
7007
0000
0000
ENDCHAR
STARTCHAR ch-336
ENCODING 336
SWIDTH 1000 0
DWIDTH 16 0
BBX 16 16 0 -2
BITMAP
0820
4bfe
2888
17ff
2800
49fc
0904
19fc
2904
49fc
0820
0bff
5020
2020
0000
0000
ENDCHAR
STARTCHAR ch-337
ENCODING 337
SWIDTH 1000 0
DWIDTH 16 0
BBX 16 16 0 -2
BITMAP
4481
2bee
1088
2888
4be8
0aaf
1bea
2aaa
4bea
088a
0bea
088a
2892
1082
0000
0000
ENDCHAR
STARTCHAR ch-338
ENCODING 338
SWIDTH 1000 0
DWIDTH 16 0
BBX 16 16 0 -2
BITMAP
0420
3fa0
043f
1f24
0444
3f94
0f08
1114
2533
0288
7fff
0140
0630
380e
0000
0000
ENDCHAR
STARTCHAR ch-343
ENCODING 343
SWIDTH 1000 0
DWIDTH 16 0
BBX 16 16 0 -2
BITMAP
47ff
3514
14a4
37f7
5449
1552
3554
5554
15f4
1444
144a
148a
5912
2221
0000
0000
ENDCHAR
STARTCHAR ch-344
ENCODING 344
SWIDTH 1000 0
DWIDTH 16 0
BBX 16 16 0 -2
BITMAP
4920
2a3f
7f44
49a8
5d10
6b28
4944
4183
0090
0088
7fff
0140
0220
3c1e
0000
0000
ENDCHAR
STARTCHAR ch-345
ENCODING 345
SWIDTH 1000 0
DWIDTH 16 0
BBX 16 16 0 -2
BITMAP
0884
52a4
22a4
51c4
1087
17fa
1492
3492
55d2
16b2
149a
1494
549a
2491
0000
0000
ENDCHAR
STARTCHAR ch-346
ENCODING 346
SWIDTH 1000 0
DWIDTH 16 0
BBX 16 16 0 -2
BITMAP
4444
29ff
1044
287c
4800
09ff
0800
18fe
2892
48fe
0892
08fe
2882
1101
0000
0000
ENDCHAR
STARTCHAR ch-347
ENCODING 347
SWIDTH 1000 0
DWIDTH 16 0
BBX 16 16 0 -2
BITMAP
4428
2929
10aa
29ff
4844
0828
09ff
0810
18fe
2810
49ff
0828
2844
1183
0000
0000
ENDCHAR
STARTCHAR ch-349
ENCODING 349
SWIDTH 1000 0
DWIDTH 16 0
BBX 16 16 0 -2
BITMAP
44fe
2804
1028
29ff
4851
0890
0830
19ff
2945
4987
097d
0945
297d
1103
0000
0000
ENDCHAR
STARTCHAR ch-350
ENCODING 350
SWIDTH 1000 0
DWIDTH 16 0
BBX 16 16 0 -2
BITMAP
4410
29ff
1044
29ff
4400
04fe
0c92
14fe
2492
44fe
0410
04fe
1410
0dff
0000
0000
ENDCHAR
STARTCHAR ch-351
ENCODING 351
SWIDTH 1000 0
DWIDTH 16 0
BBX 16 16 0 -2
BITMAP
4410
28fe
1010
29ff
4844
09ef
0844
19ef
2800
49ff
0848
0889
2909
120f
0000
0000
ENDCHAR
STARTCHAR ch-352
ENCODING 352
SWIDTH 1000 0
DWIDTH 16 0
BBX 16 16 0 -2
BITMAP
4820
2bff
1020
2954
4888
09fc
1b07
2dfc
4904
09fc
0928
0a26
54a2
2040
0000
0000
ENDCHAR
STARTCHAR ch-353
ENCODING 353
SWIDTH 1000 0
DWIDTH 16 0
BBX 16 16 0 -2
BITMAP
4480
290e
1302
29ce
4902
09fe
1880
29ff
4a01
0955
0955
0955
2801
1006
0000
0000
ENDCHAR
STARTCHAR ch-354
ENCODING 354
SWIDTH 1000 0
DWIDTH 16 0
BBX 16 16 0 -2
BITMAP
4bfe
5020
27ff
5088
09fc
0a8a
1cf9
2800
4bfe
0a02
0afa
0a8a
2afa
1204
0000
0000
ENDCHAR
STARTCHAR ch-357
ENCODING 357
SWIDTH 1000 0
DWIDTH 16 0
BBX 16 16 0 -2
BITMAP
4488
2908
13e8
2a2f
4be8
0a32
0be2
1882
2bea
490a
09ca
0a44
284a
10d1
0000
0000
ENDCHAR
STARTCHAR ch-358
ENCODING 358
SWIDTH 1000 0
DWIDTH 16 0
BBX 16 16 0 -2
BITMAP
4444
29ff
1044
28fe
4882
08fe
0882
18fe
2840
49ff
0b11
0929
29fd
1006
0000
0000
ENDCHAR
STARTCHAR ch-359
ENCODING 359
SWIDTH 1000 0
DWIDTH 16 0
BBX 16 16 0 -2
BITMAP
4bff
2a49
13ff
2800
4bff
0800
19fe
2902
49fe
0880
0892
0994
56a8
20c7
0000
0000
ENDCHAR
STARTCHAR ch-360
ENCODING 360
SWIDTH 1000 0
DWIDTH 16 0
BBX 16 16 0 -2
BITMAP
0000
45fe
294a
11fe
6880
09ff
0a21
18f9
68a9
08f9
0829
08f9
4801
300e
0000
0000
ENDCHAR
STARTCHAR ch-361
ENCODING 361
SWIDTH 1000 0
DWIDTH 16 0
BBX 16 16 0 -2
BITMAP
0890
489e
3090
33ff
4805
0bff
1a04
2bf4
4a45
0b55
0b56
0b54
522b
25c1
0000
0000
ENDCHAR
STARTCHAR ch-362
ENCODING 362
SWIDTH 1000 0
DWIDTH 16 0
BBX 16 16 0 -2
BITMAP
4420
2850
1088
2974
4a02
0fff
0aaa
1bfe
2800
49fc
0904
09fc
0904
19fc
0000
0000
ENDCHAR
STARTCHAR ch-363
ENCODING 363
SWIDTH 1000 0
DWIDTH 16 0
BBX 16 16 0 -2
BITMAP
4820
5050
2088
5104
0efb
0800
1bde
2a52
4a52
0bde
0800
0904
5104
26db
0000
0000
ENDCHAR
STARTCHAR ch-364
ENCODING 364
SWIDTH 1000 0
DWIDTH 16 0
BBX 16 16 0 -2
BITMAP
451f
29c5
1245
2885
4beb
0aa0
1aaa
2bef
4ab2
0aa2
0bff
0a22
5222
2462
0000
0000
ENDCHAR
STARTCHAR ch-366
ENCODING 366
SWIDTH 1000 0
DWIDTH 16 0
BBX 16 16 0 -2
BITMAP
45ff
2838
1054
29ff
4911
09bb
0955
19bb
2911
49bb
0955
09bb
0911
1911
0000
0000
ENDCHAR
STARTCHAR ch-367
ENCODING 367
SWIDTH 1000 0
DWIDTH 16 0
BBX 16 16 0 -2
BITMAP
45f8
2820
17ff
2820
4bfe
0aaa
1a72
2bfe
4820
0bfe
0fff
0a92
5249
2401
0000
0000
ENDCHAR
STARTCHAR ch-368
ENCODING 368
SWIDTH 1000 0
DWIDTH 16 0
BBX 16 16 0 -2
BITMAP
4410
29ff
1101
29b5
48a6
093c
18fe
28aa
49ff
0800
08fe
0810
2850
1020
0000
0000
ENDCHAR
STARTCHAR ch-370
ENCODING 370
SWIDTH 1000 0
DWIDTH 16 0
BBX 16 16 0 -2
BITMAP
4844
29ff
1054
28fe
4988
08fe
0888
18fe
2888
48fe
08fe
0844
2810
10ee
0000
0000
ENDCHAR
STARTCHAR ch-371
ENCODING 371
SWIDTH 1000 0
DWIDTH 16 0
BBX 16 16 0 -2
BITMAP
45ff
2810
11ff
2955
4933
0854
0800
19ff
2820
49ff
0929
0929
2929
1103
0000
0000
ENDCHAR
STARTCHAR ch-373
ENCODING 373
SWIDTH 1000 0
DWIDTH 16 0
BBX 16 16 0 -2
BITMAP
0092
4924
2a48
1124
2bfe
4a22
0a52
0bfe
1924
29fc
4924
09fd
1125
63b3
0000
0000
ENDCHAR
STARTCHAR ch-374
ENCODING 374
SWIDTH 1000 0
DWIDTH 16 0
BBX 16 16 0 -2
BITMAP
47ff
2820
10fc
28f4
48bc
0bff
0b53
1944
287c
4820
087c
08a8
0910
18ee
0000
0000
ENDCHAR
STARTCHAR ch-375
ENCODING 375
SWIDTH 1000 0
DWIDTH 16 0
BBX 16 16 0 -2
BITMAP
0840
4820
33ff
3248
4bfe
0a48
1bfe
2afe
4a92
0afe
0a92
0afe
1244
6482
0000
0000
ENDCHAR
STARTCHAR ch-376
ENCODING 376
SWIDTH 1000 0
DWIDTH 16 0
BBX 16 16 0 -2
BITMAP
7bc8
4a4a
7bc9
3fbf
2488
3f88
2488
3f88
7fc8
0014
3f94
20a2
3fa2
20a2
0000
0000
ENDCHAR
STARTCHAR ch-378
ENCODING 378
SWIDTH 1000 0
DWIDTH 16 0
BBX 16 16 0 -2
BITMAP
491f
2909
17c9
3112
57df
1551
155f
37d1
511f
1391
155f
110a
5111
2111
0000
0000
ENDCHAR
STARTCHAR ch-379
ENCODING 379
SWIDTH 1000 0
DWIDTH 16 0
BBX 16 16 0 -2
BITMAP
0f88
080a
7fc9
4848
7fbf
4f08
7f88
5f08
5108
5f08
7f88
6a94
3fa2
24c1
0000
0000
ENDCHAR
STARTCHAR ch-380
ENCODING 380
SWIDTH 1000 0
DWIDTH 16 0
BBX 16 16 0 -2
BITMAP
45ff
2838
1054
2892
49ff
0911
09bb
1955
29bb
4911
09bb
0955
09bb
1911
0000
0000
ENDCHAR
STARTCHAR ch-381
ENCODING 381
SWIDTH 1000 0
DWIDTH 16 0
BBX 16 16 0 -2
BITMAP
4410
29ff
11ef
2929
49ef
0844
09ff
1844
29ff
4844
09ff
088a
0984
1acb
0000
0000
ENDCHAR
STARTCHAR ch-382
ENCODING 382
SWIDTH 1000 0
DWIDTH 16 0
BBX 16 16 0 -2
BITMAP
0088
47ff
2888
13de
2a52
4bde
1910
2bff
4d10
09fe
0910
09fe
5110
21ff
0000
0000
ENDCHAR
STARTCHAR ch-383
ENCODING 383
SWIDTH 1000 0
DWIDTH 16 0
BBX 16 16 0 -2
BITMAP
45fe
2820
1177
29d5
4b77
0b74
0b55
1ff7
2888
4944
0878
08d0
2820
10de
0000
0000
ENDCHAR
STARTCHAR ch-384
ENCODING 384
SWIDTH 1000 0
DWIDTH 16 0
BBX 16 16 0 -2
BITMAP
45ff
2929
1129
29ff
4884
092a
0bdf
188a
292f
4bea
088f
0aaa
288f
1088
0000
0000
ENDCHAR
STARTCHAR ch-385
ENCODING 385
SWIDTH 1000 0
DWIDTH 16 0
BBX 16 16 0 -2
BITMAP
45ef
2929
11ef
29ff
4974
0927
19fa
295a
4972
0952
0972
0a54
08f2
1819
0000
0000
ENDCHAR
STARTCHAR ch-386
ENCODING 386
SWIDTH 1000 0
DWIDTH 16 0
BBX 16 16 0 -2
BITMAP
0a20
5771
222e
5778
1558
177f
33ea
52aa
13ea
12b2
13e2
1082
17f2
6082
0000
0000
ENDCHAR
STARTCHAR ch-387
ENCODING 387
SWIDTH 1000 0
DWIDTH 16 0
BBX 16 16 0 -2
BITMAP
45ef
2929
11ef
29ef
49ef
0890
08fe
19fe
28fe
4890
08fe
087c
2838
13c7
0000
0000
ENDCHAR
STARTCHAR ch-388
ENCODING 388
SWIDTH 1000 0
DWIDTH 16 0
BBX 16 16 0 -2
BITMAP
0100
0082
7fff
0100
0210
0420
1840
0480
0300
0210
0408
0804
3ffe
0002
0000
0000
ENDCHAR
STARTCHAR ch-389
ENCODING 389
SWIDTH 1000 0
DWIDTH 16 0
BBX 16 16 0 -2
BITMAP
1010
0810
0010
7e54
0892
1111
2010
7c12
0812
1012
1004
2408
7e10
02e0
0000
0000
ENDCHAR
STARTCHAR ch-390
ENCODING 390
SWIDTH 1000 0
DWIDTH 16 0
BBX 16 16 0 -2
BITMAP
2020
1010
0808
7f7f
0404
0808
1010
2222
7c7c
0808
1010
2121
7f7f
0101
0000
0000
ENDCHAR
STARTCHAR ch-391
ENCODING 391
SWIDTH 1000 0
DWIDTH 16 0
BBX 16 16 0 -2
BITMAP
0100
3ffe
0080
2122
13c4
0888
1124
27f2
0090
0082
7fff
0080
0080
0080
0000
0000
ENDCHAR
STARTCHAR ch-392
ENCODING 392
SWIDTH 1000 0
DWIDTH 16 0
BBX 16 16 0 -2
BITMAP
2040
1042
00ff
7d00
1002
20fc
4480
7881
10a2
2094
4888
44a4
7cc2
0381
0000
0000
ENDCHAR
STARTCHAR ch-393
ENCODING 393
SWIDTH 1000 0
DWIDTH 16 0
BBX 16 16 0 -2
BITMAP
0004
3ffe
0080
0080
0080
0088
1ffc
0080
00a0
0098
0088
0082
7fff
0000
0000
0000
ENDCHAR
STARTCHAR ch-394
ENCODING 394
SWIDTH 1000 0
DWIDTH 16 0
BBX 16 16 0 -2
BITMAP
0000
3ffe
0080
0090
0088
0084
0080
3ffe
0080
0080
0080
0080
0080
7fff
0000
0000
ENDCHAR
STARTCHAR ch-395
ENCODING 395
SWIDTH 1000 0
DWIDTH 16 0
BBX 16 16 0 -2
BITMAP
0004
3ffe
0080
0080
0080
0080
0088
1ffc
0080
0080
0080
0080
0082
7fff
0000
0000
ENDCHAR
STARTCHAR ch-398
ENCODING 398
SWIDTH 1000 0
DWIDTH 16 0
BBX 16 16 0 -2
BITMAP
0002
04ff
7e08
0808
0808
0808
7e08
0808
0808
0e08
7808
2048
0028
0010
0000
0000
ENDCHAR
STARTCHAR ch-402
ENCODING 402
SWIDTH 1000 0
DWIDTH 16 0
BBX 16 16 0 -2
BITMAP
0804
7cfe
1010
1010
1010
1010
7c10
1010
1010
1410
1810
7012
03ff
0000
0000
0000
ENDCHAR
STARTCHAR ch-403
ENCODING 403
SWIDTH 1000 0
DWIDTH 16 0
BBX 16 16 0 -2
BITMAP
0080
0480
7eff
1081
1101
1001
7c21
1011
1209
1401
1801
7001
0012
000c
0000
0000
ENDCHAR
STARTCHAR ch-404
ENCODING 404
SWIDTH 1000 0
DWIDTH 16 0
BBX 16 16 0 -2
BITMAP
0802
7c92
1092
1092
1092
7c92
1092
1092
1492
1892
7092
0112
0202
0002
0000
0000
ENDCHAR
STARTCHAR ch-405
ENCODING 405
SWIDTH 1000 0
DWIDTH 16 0
BBX 16 16 0 -2
BITMAP
0006
7c08
10f0
1010
1010
7c12
11ff
1010
1010
1410
1810
7010
0010
0010
0000
0000
ENDCHAR
STARTCHAR ch-406
ENCODING 406
SWIDTH 1000 0
DWIDTH 16 0
BBX 16 16 0 -2
BITMAP
0220
7f24
087e
0844
0844
3e88
0908
0810
0f28
7828
2044
0084
0103
0600
0000
0000
ENDCHAR
STARTCHAR ch-407
ENCODING 407
SWIDTH 1000 0
DWIDTH 16 0
BBX 16 16 0 -2
BITMAP
0804
7cfe
1010
1010
1012
7dff
1010
1010
1010
1410
1810
7010
0090
0060
0000
0000
ENDCHAR
STARTCHAR ch-413
ENCODING 413
SWIDTH 1000 0
DWIDTH 16 0
BBX 16 16 0 -2
BITMAP
0040
0044
7cfe
1110
1010
1012
7dff
1010
1010
1410
1810
7010
0010
0010
0000
0000
ENDCHAR
STARTCHAR ch-415
ENCODING 415
SWIDTH 1000 0
DWIDTH 16 0
BBX 16 16 0 -2
BITMAP
0040
0020
7e22
09ff
0804
3e84
0888
0848
0850
0e20
7850
2088
0107
0602
0000
0000
ENDCHAR
STARTCHAR ch-416
ENCODING 416
SWIDTH 1000 0
DWIDTH 16 0
BBX 16 16 0 -2
BITMAP
0010
7c28
1044
1082
1101
1044
7c44
1044
1044
1444
1884
7104
0004
0004
0000
0000
ENDCHAR
STARTCHAR ch-417
ENCODING 417
SWIDTH 1000 0
DWIDTH 16 0
BBX 16 16 0 -2
BITMAP
0000
7dfe
1084
1084
1084
11ff
7c0c
1014
1024
1444
1884
7104
0214
0008
0000
0000
ENDCHAR
STARTCHAR ch-418
ENCODING 418
SWIDTH 1000 0
DWIDTH 16 0
BBX 16 16 0 -2
BITMAP
0010
0450
7e50
0888
0884
3d03
0afc
0844
0844
0e44
7884
2084
0128
0210
0000
0000
ENDCHAR
STARTCHAR ch-420
ENCODING 420
SWIDTH 1000 0
DWIDTH 16 0
BBX 16 16 0 -2
BITMAP
0010
7c12
10fc
1010
1010
10fe
7c10
1010
11ff
1410
1810
7010
0010
0010
0000
0000
ENDCHAR
STARTCHAR ch-421
ENCODING 421
SWIDTH 1000 0
DWIDTH 16 0
BBX 16 16 0 -2
BITMAP
027f
7f41
0841
0841
087f
7f41
0841
087f
0841
0841
0e41
7881
0105
0002
0000
0000
ENDCHAR
STARTCHAR ch-422
ENCODING 422
SWIDTH 1000 0
DWIDTH 16 0
BBX 16 16 0 -2
BITMAP
0020
7c20
1020
13fe
1022
7c22
1022
17ff
1020
1450
1888
7104
0202
0401
0000
0000
ENDCHAR
STARTCHAR ch-424
ENCODING 424
SWIDTH 1000 0
DWIDTH 16 0
BBX 16 16 0 -2
BITMAP
0004
01fe
7e20
0820
0820
0820
3e24
09fe
0820
0820
0820
0e20
7822
23ff
0000
0000
ENDCHAR
STARTCHAR ch-425
ENCODING 425
SWIDTH 1000 0
DWIDTH 16 0
BBX 16 16 0 -2
BITMAP
0004
7efe
0800
0802
09ff
3e48
0848
0848
0848
0e48
7889
2089
0107
0200
0000
0000
ENDCHAR
STARTCHAR ch-427
ENCODING 427
SWIDTH 1000 0
DWIDTH 16 0
BBX 16 16 0 -2
BITMAP
0020
7e20
0842
087f
0884
0944
3e44
0848
0828
0810
0e28
7044
2087
0302
0000
0000
ENDCHAR
STARTCHAR ch-428
ENCODING 428
SWIDTH 1000 0
DWIDTH 16 0
BBX 16 16 0 -2
BITMAP
0000
7cfe
1082
10a2
1092
7c8a
11ff
1082
1082
1482
1882
7082
010a
0004
0000
0000
ENDCHAR
STARTCHAR ch-429
ENCODING 429
SWIDTH 1000 0
DWIDTH 16 0
BBX 16 16 0 -2
BITMAP
0010
0910
7d10
1110
1152
11ff
7d10
1110
1110
1110
1131
1d51
7191
030f
0000
0000
ENDCHAR
STARTCHAR ch-434
ENCODING 434
SWIDTH 1000 0
DWIDTH 16 0
BBX 16 16 0 -2
BITMAP
0020
7c50
1050
1088
1104
7af7
1402
1000
11fc
1c04
7008
2050
0020
0010
0000
0000
ENDCHAR
STARTCHAR ch-435
ENCODING 435
SWIDTH 1000 0
DWIDTH 16 0
BBX 16 16 0 -2
BITMAP
0454
7e52
1092
1090
119f
7df0
1290
1090
1288
1c88
7089
2085
0085
0083
0000
0000
ENDCHAR
STARTCHAR ch-436
ENCODING 436
SWIDTH 1000 0
DWIDTH 16 0
BBX 16 16 0 -2
BITMAP
0124
0924
7d24
1124
17ff
1124
1124
7d24
1124
113c
1124
1d00
71ff
0100
0000
0000
ENDCHAR
STARTCHAR ch-437
ENCODING 437
SWIDTH 1000 0
DWIDTH 16 0
BBX 16 16 0 -2
BITMAP
0044
7c44
1044
11ff
1044
1044
7c44
107c
1044
1444
1844
7044
007c
0044
0000
0000
ENDCHAR
STARTCHAR ch-438
ENCODING 438
SWIDTH 1000 0
DWIDTH 16 0
BBX 16 16 0 -2
BITMAP
0000
7cfe
1010
1092
1092
1054
7c10
11ff
1010
1410
1810
7010
0010
0010
0000
0000
ENDCHAR
STARTCHAR ch-439
ENCODING 439
SWIDTH 1000 0
DWIDTH 16 0
BBX 16 16 0 -2
BITMAP
0020
0420
7e20
0822
083f
0820
7e20
0822
09ff
0f02
7902
2102
01fe
0102
0000
0000
ENDCHAR
STARTCHAR ch-440
ENCODING 440
SWIDTH 1000 0
DWIDTH 16 0
BBX 16 16 0 -2
BITMAP
0080
7cfe
1102
1202
11f2
1112
7d12
11f2
1102
151c
1900
7100
0101
01ff
0000
0000
ENDCHAR
STARTCHAR ch-441
ENCODING 441
SWIDTH 1000 0
DWIDTH 16 0
BBX 16 16 0 -2
BITMAP
0040
7c20
1012
13ff
1020
1020
7c44
1088
11f0
1420
1844
1082
61ff
0001
0000
0000
ENDCHAR
STARTCHAR ch-443
ENCODING 443
SWIDTH 1000 0
DWIDTH 16 0
BBX 16 16 0 -2
BITMAP
0010
7e10
08ff
0891
0892
7e90
08fe
08c4
0f24
7928
2110
0228
0447
0182
0000
0000
ENDCHAR
STARTCHAR ch-444
ENCODING 444
SWIDTH 1000 0
DWIDTH 16 0
BBX 16 16 0 -2
BITMAP
0048
0048
7c48
1048
1148
117f
7d48
1148
1148
1548
1948
7149
0149
03ef
0000
0000
ENDCHAR
STARTCHAR ch-446
ENCODING 446
SWIDTH 1000 0
DWIDTH 16 0
BBX 16 16 0 -2
BITMAP
01ff
7d11
1111
11ff
1111
7d11
11ff
1111
1410
1810
7010
0010
0010
0010
0000
0000
ENDCHAR
STARTCHAR ch-447
ENCODING 447
SWIDTH 1000 0
DWIDTH 16 0
BBX 16 16 0 -2
BITMAP
01ff
7c21
1021
1021
1041
1082
7c1c
1000
11ff
1501
1901
7101
01ff
0101
0000
0000
ENDCHAR
STARTCHAR ch-448
ENCODING 448
SWIDTH 1000 0
DWIDTH 16 0
BBX 16 16 0 -2
BITMAP
0010
0410
7e22
08ff
0882
0882
7e82
08fe
0882
0882
0e82
7882
20fe
0082
0000
0000
ENDCHAR
STARTCHAR ch-450
ENCODING 450
SWIDTH 1000 0
DWIDTH 16 0
BBX 16 16 0 -2
BITMAP
0002
7dff
1004
10f4
1094
1094
7c94
10f4
1094
1404
1804
7004
2014
0008
0000
0000
ENDCHAR
STARTCHAR ch-451
ENCODING 451
SWIDTH 1000 0
DWIDTH 16 0
BBX 16 16 0 -2
BITMAP
0010
0010
7cfe
1092
1092
10fe
7c92
1092
11ff
1482
1882
7082
008a
0084
0000
0000
ENDCHAR
STARTCHAR ch-453
ENCODING 453
SWIDTH 1000 0
DWIDTH 16 0
BBX 16 16 0 -2
BITMAP
0010
0010
7dff
1111
1111
11ff
7d11
1111
11ff
1511
1810
7010
0010
0010
0000
0000
ENDCHAR
STARTCHAR ch-454
ENCODING 454
SWIDTH 1000 0
DWIDTH 16 0
BBX 16 16 0 -2
BITMAP
0010
0010
7c20
1044
1082
11ff
1001
7c00
10fe
1082
1482
1882
70fe
0082
0000
0000
ENDCHAR
STARTCHAR ch-455
ENCODING 455
SWIDTH 1000 0
DWIDTH 16 0
BBX 16 16 0 -2
BITMAP
0000
7cfc
1084
1084
1084
10fc
7c84
1084
1084
10fc
1484
1884
7084
03ff
0000
0000
ENDCHAR
STARTCHAR ch-456
ENCODING 456
SWIDTH 1000 0
DWIDTH 16 0
BBX 16 16 0 -2
BITMAP
0100
7d00
1102
17df
1152
7d52
1152
1152
1d52
7252
225e
0452
0940
0080
0000
0000
ENDCHAR
STARTCHAR ch-458
ENCODING 458
SWIDTH 1000 0
DWIDTH 16 0
BBX 16 16 0 -2
BITMAP
0002
03ff
7e52
1252
1252
7a52
17ff
1252
1e52
7252
2252
02d2
0422
0846
0000
0000
ENDCHAR
STARTCHAR ch-459
ENCODING 459
SWIDTH 1000 0
DWIDTH 16 0
BBX 16 16 0 -2
BITMAP
0040
0080
7d1f
1109
1129
1129
7d29
11e9
102e
1428
1848
7088
0308
0008
0000
0000
ENDCHAR
STARTCHAR ch-460
ENCODING 460
SWIDTH 1000 0
DWIDTH 16 0
BBX 16 16 0 -2
BITMAP
0020
7c10
1008
1040
1142
1141
7d45
1149
1050
1460
1840
10c1
6141
063f
0000
0000
ENDCHAR
STARTCHAR ch-461
ENCODING 461
SWIDTH 1000 0
DWIDTH 16 0
BBX 16 16 0 -2
BITMAP
0020
0450
7e50
0888
0917
0a22
7e40
0888
0810
0e24
7848
2010
0060
0180
0000
0000
ENDCHAR
STARTCHAR ch-466
ENCODING 466
SWIDTH 1000 0
DWIDTH 16 0
BBX 16 16 0 -2
BITMAP
0010
0010
7cfe
1012
11ff
1012
7cfe
1010
10fe
1410
19ff
7010
0010
0010
0000
0000
ENDCHAR
STARTCHAR ch-467
ENCODING 467
SWIDTH 1000 0
DWIDTH 16 0
BBX 16 16 0 -2
BITMAP
0010
7c10
11ff
1044
1082
7d01
1044
1044
1428
1810
1028
6044
0082
0301
0000
0000
ENDCHAR
STARTCHAR ch-468
ENCODING 468
SWIDTH 1000 0
DWIDTH 16 0
BBX 16 16 0 -2
BITMAP
0020
0020
7dff
1040
109e
1182
7e84
1088
10ff
1488
1888
7088
00a8
0090
0000
0000
ENDCHAR
STARTCHAR ch-470
ENCODING 470
SWIDTH 1000 0
DWIDTH 16 0
BBX 16 16 0 -2
BITMAP
0010
7d11
1092
1054
1010
7dff
1048
1048
1048
1448
1849
7089
0109
020f
0000
0000
ENDCHAR
STARTCHAR ch-471
ENCODING 471
SWIDTH 1000 0
DWIDTH 16 0
BBX 16 16 0 -2
BITMAP
0010
0090
7cfe
1090
1110
1010
7dff
1028
1028
1428
1828
7049
0089
030f
0000
0000
ENDCHAR
STARTCHAR ch-472
ENCODING 472
SWIDTH 1000 0
DWIDTH 16 0
BBX 16 16 0 -2
BITMAP
0020
0040
7cfe
1182
10a2
1092
7c8a
11ff
10a2
1492
188a
7082
008a
0104
0000
0000
ENDCHAR
STARTCHAR ch-473
ENCODING 473
SWIDTH 1000 0
DWIDTH 16 0
BBX 16 16 0 -2
BITMAP
0088
0088
7c88
13fe
1088
7c88
1088
1088
17ff
1c00
7088
2184
0206
0402
0000
0000
ENDCHAR
STARTCHAR ch-474
ENCODING 474
SWIDTH 1000 0
DWIDTH 16 0
BBX 16 16 0 -2
BITMAP
01ff
0101
7d11
1111
11ff
1111
7d11
1111
1129
1545
1983
7101
01ff
0101
0000
0000
ENDCHAR
STARTCHAR ch-475
ENCODING 475
SWIDTH 1000 0
DWIDTH 16 0
BBX 16 16 0 -2
BITMAP
0020
0020
7dff
1040
10fe
1182
7efe
1082
10fe
1482
1882
7082
008a
0104
0000
0000
ENDCHAR
STARTCHAR ch-476
ENCODING 476
SWIDTH 1000 0
DWIDTH 16 0
BBX 16 16 0 -2
BITMAP
0082
0044
7c28
11ff
1010
1010
7dff
1010
1410
19ff
7010
0010
0010
0010
0000
0000
ENDCHAR
STARTCHAR ch-477
ENCODING 477
SWIDTH 1000 0
DWIDTH 16 0
BBX 16 16 0 -2
BITMAP
01ef
7c21
1021
1129
10a5
7c21
1063
10a5
1529
1821
7021
0021
014a
0084
0000
0000
ENDCHAR
STARTCHAR ch-478
ENCODING 478
SWIDTH 1000 0
DWIDTH 16 0
BBX 16 16 0 -2
BITMAP
0040
7cff
1144
1028
1010
1028
7cc6
1301
10fe
1082
1c82
7082
00fe
0082
0000
0000
ENDCHAR
STARTCHAR ch-480
ENCODING 480
SWIDTH 1000 0
DWIDTH 16 0
BBX 16 16 0 -2
BITMAP
0090
7e90
10fe
1090
1110
7c12
11ff
1030
1038
1c58
7094
2317
0112
0010
0000
0000
ENDCHAR
STARTCHAR ch-483
ENCODING 483
SWIDTH 1000 0
DWIDTH 16 0
BBX 16 16 0 -2
BITMAP
0100
7d00
11ff
1201
15f9
1109
7d09
11f9
1109
1109
15f9
1909
7002
0004
0000
0000
ENDCHAR
STARTCHAR ch-485
ENCODING 485
SWIDTH 1000 0
DWIDTH 16 0
BBX 16 16 0 -2
BITMAP
0002
01ff
7c84
1084
10fc
7c84
1084
10fc
1084
1c87
71fc
4004
0004
0004
0000
0000
ENDCHAR
STARTCHAR ch-487
ENCODING 487
SWIDTH 1000 0
DWIDTH 16 0
BBX 16 16 0 -2
BITMAP
0090
7c92
1296
1198
1090
7c90
1098
1196
1692
1c90
7111
2111
0211
0c0f
0000
0000
ENDCHAR
STARTCHAR ch-488
ENCODING 488
SWIDTH 1000 0
DWIDTH 16 0
BBX 16 16 0 -2
BITMAP
0010
0028
7c44
1082
1101
107c
7c00
1000
10fe
1082
1482
1882
70fe
0082
0000
0000
ENDCHAR
STARTCHAR ch-489
ENCODING 489
SWIDTH 1000 0
DWIDTH 16 0
BBX 16 16 0 -2
BITMAP
0084
7d3e
1200
1480
1082
7d7f
1304
1504
1104
1d04
7104
2104
0114
0108
0000
0000
ENDCHAR
STARTCHAR ch-490
ENCODING 490
SWIDTH 1000 0
DWIDTH 16 0
BBX 16 16 0 -2
BITMAP
0010
7c10
10fe
1010
1012
11ff
7c10
1010
1010
10fe
1010
1c10
7012
03ff
0000
0000
ENDCHAR
STARTCHAR ch-491
ENCODING 491
SWIDTH 1000 0
DWIDTH 16 0
BBX 16 16 0 -2
BITMAP
0020
0020
7dfe
1040
1080
1104
13fe
7c92
1090
1490
1890
1111
6211
041f
0000
0000
ENDCHAR
STARTCHAR ch-493
ENCODING 493
SWIDTH 1000 0
DWIDTH 16 0
BBX 16 16 0 -2
BITMAP
0082
7ebf
1088
1088
1288
1388
79be
1088
1088
1108
1d08
7108
227f
0400
0000
0000
ENDCHAR
STARTCHAR ch-494
ENCODING 494
SWIDTH 1000 0
DWIDTH 16 0
BBX 16 16 0 -2
BITMAP
0002
03ff
7e02
13fe
1222
12fa
7eaa
12aa
12aa
16aa
1ab2
7222
0423
0020
0000
0000
ENDCHAR
STARTCHAR ch-500
ENCODING 500
SWIDTH 1000 0
DWIDTH 16 0
BBX 16 16 0 -2
BITMAP
0028
03ca
7c89
1088
1088
13ff
7ca8
10c9
118a
168c
1889
7095
02a3
0101
0000
0000
ENDCHAR
STARTCHAR ch-501
ENCODING 501
SWIDTH 1000 0
DWIDTH 16 0
BBX 16 16 0 -2
BITMAP
01ff
0101
7d01
1101
11ff
1001
7dfe
1010
1010
15ff
1810
7010
0010
03ff
0000
0000
ENDCHAR
STARTCHAR ch-502
ENCODING 502
SWIDTH 1000 0
DWIDTH 16 0
BBX 16 16 0 -2
BITMAP
0104
0088
7dfe
1022
1022
13fe
7e20
1220
13ff
1461
18a1
732a
0024
0040
0000
0000
ENDCHAR
STARTCHAR ch-504
ENCODING 504
SWIDTH 1000 0
DWIDTH 16 0
BBX 16 16 0 -2
BITMAP
01ff
0020
7c20
11fe
1022
1022
7dff
1000
10fe
1482
1882
7082
00fe
0082
0000
0000
ENDCHAR
STARTCHAR ch-506
ENCODING 506
SWIDTH 1000 0
DWIDTH 16 0
BBX 16 16 0 -2
BITMAP
0000
00fe
7c22
11ff
1022
10fe
7c20
1040
10ff
1541
1841
7041
007f
0041
0000
0000
ENDCHAR
STARTCHAR ch-508
ENCODING 508
SWIDTH 1000 0
DWIDTH 16 0
BBX 16 16 0 -2
BITMAP
01fe
7d02
1102
11fe
1102
7d02
11fe
1102
1102
1d02
71fe
0084
0102
0201
0000
0000
ENDCHAR
STARTCHAR ch-509
ENCODING 509
SWIDTH 1000 0
DWIDTH 16 0
BBX 16 16 0 -2
BITMAP
03df
0044
7c84
1104
1204
111f
7c84
1084
1084
1084
159f
1880
7140
023f
0000
0000
ENDCHAR
STARTCHAR ch-510
ENCODING 510
SWIDTH 1000 0
DWIDTH 16 0
BBX 16 16 0 -2
BITMAP
00fc
7c84
1084
10fc
1084
1084
7cfc
1084
1084
14fc
1848
7048
0089
070f
0000
0000
ENDCHAR
STARTCHAR ch-511
ENCODING 511
SWIDTH 1000 0
DWIDTH 16 0
BBX 16 16 0 -2
BITMAP
01fc
7d04
1104
1104
11fc
7c20
1020
1020
113e
1520
19a0
7160
0220
041f
0000
0000
ENDCHAR
ENDFONT
